<?xml version="1.0" encoding="UTF-8"?>
<svg width="123px" height="297px" viewBox="0 0 123 297" version="1.1" xmlns="http://www.w3.org/2000/svg" xmlns:xlink="http://www.w3.org/1999/xlink">
    <!-- Generator: Sketch 46.2 (44496) - http://www.bohemiancoding.com/sketch -->
    <title>Hourglass</title>
    <desc>Created with Sketch.</desc>
    <defs></defs>
    <g id="Symbols" stroke="none" stroke-width="1" fill="none" fill-rule="evenodd">
        <g id="Hourglass">
            <polygon id="Fill-39" fill="#E4DACD" opacity="0.696954257" points="0 25 119.454754 25 82.7898868 102.501856 122.916667 172.957317 2.00960495 170.609732 39.7682196 98.9780516"></polygon>
            <path d="M88.0303079,0.0609756098 L87.0873,1.52245814 C80.4862449,11.7614014 72.603694,17.0934036 63.6451191,17.3814173 L63.6451191,17.2143908 L61.3405896,17.3525089 L61.3286938,17.3525089 L61.3276124,17.3525089 L61.2648894,17.3503675 L58.9614412,17.2015426 L58.9625227,17.3814173 C50.0104364,17.0859088 42.1322112,11.7549773 35.5354818,1.52245814 L34.5924739,0.0609756098 L32.9530245,0.670194337 C25.3711114,3.4850204 24.0398697,3.89830411 23.8127692,3.95933305 L22.8481327,4.21201428 L22.4177232,5.10389337 C20.929674,8.1821075 8.08227315,35.5948088 15.1861937,50.0104871 C15.8318081,51.3199326 16.569344,52.7707083 17.3706844,54.3446126 C24.7741614,68.8930556 38.5537559,95.9727745 29.11827,114.750416 C26.3141192,120.332958 23.6873232,124.330889 21.1470417,128.197126 C13.8711736,139.270131 8.12444896,148.015472 4.88231867,183.437954 C0.565245912,230.613325 22.1408768,293.957083 22.3593259,294.591998 L22.8654356,296.060976 L24.4324292,296.041703 L61.3373453,295.601653 L98.1914341,296.041703 L99.7584276,296.060976 L100.264537,294.591998 C100.482986,293.957083 122.057536,230.613325 117.740463,183.437954 C114.498333,148.015472 108.751608,139.270131 101.476822,128.197126 C98.9354586,124.330889 96.3086626,120.332958 93.5045119,114.750416 C84.069026,95.9727745 97.8497018,68.8930556 105.252097,54.3446126 C106.053438,52.7707083 106.792055,51.3199326 107.436588,50.0104871 C114.540509,35.5948088 101.694189,8.1821075 100.20614,5.10389337 L99.7746491,4.21201428 L98.8100126,3.95933305 C98.5829121,3.89830411 97.2516705,3.4850204 89.6708388,0.670194337 L88.0303079,0.0609756098 Z M88.9105928,2.67451324 C95.7971457,5.23130466 97.7761645,5.90262301 98.2552385,6.02789295 C99.0349503,7.64141249 112.243549,35.3710361 105.492175,49.071498 C98.5385734,63.1852436 80.6430524,93.9609608 91.5676689,115.704395 C102.492285,137.446758 111.260528,136.363227 115.586253,183.630677 C119.911977,230.898127 98.216307,293.900337 98.216307,293.900337 L61.3113909,293.460286 L24.4064749,293.900337 C24.4064749,293.900337 2.71080512,230.898127 7.03652932,183.630677 C11.3622535,136.363227 20.1304965,137.446758 31.055113,115.704395 C41.9797294,93.9609608 24.0852898,63.1852436 17.1295253,49.071498 C10.3792327,35.3710361 23.5878316,7.64141249 24.3686248,6.02789295 C24.8466173,5.90262301 26.8267176,5.23130466 33.7121891,2.67451324 C41.868342,15.3267763 51.083216,19.5356319 59.7508859,19.5356319 C60.2159013,19.5356319 60.6798352,19.5238544 61.1416062,19.5002993 L61.1416062,19.4895925 C61.1978407,19.4928046 61.2551565,19.4906632 61.3113909,19.4938752 C61.3687068,19.4906632 61.4249412,19.4928046 61.482257,19.4895925 L61.482257,19.5002993 C61.9440281,19.5238544 62.4068806,19.5356319 62.8718959,19.5356319 C71.5395658,19.5356319 80.7544398,15.3257056 88.9105928,2.67451324 L88.9105928,2.67451324 Z" id="Fill-1" fill="#373737"></path>
        </g>
    </g>
</svg>