<?xml version="1.0" encoding="UTF-8"?>
<svg width="92px" height="306px" viewBox="0 0 92 306" version="1.1" xmlns="http://www.w3.org/2000/svg" xmlns:xlink="http://www.w3.org/1999/xlink">
    <!-- Generator: Sketch 46.2 (44496) - http://www.bohemiancoding.com/sketch -->
    <title>Page 1</title>
    <desc>Created with Sketch.</desc>
    <defs>
        <polygon id="path-1" points="45.9264815 0 0 0 0 306 45.9264815 306 91.852963 306 91.852963 0"></polygon>
    </defs>
    <g id="Symbols" stroke="none" stroke-width="1" fill="none" fill-rule="evenodd">
        <g id="Low">
            <g id="Page-1">
                <g id="Group-3">
                    <mask id="mask-2" fill="white">
                        <use xlink:href="#path-1"></use>
                    </mask>
                    <g id="Clip-2"></g>
                    <path d="M64.6430873,0 C63.9381859,0 63.2643831,0.285428571 62.7758761,0.788142857 C62.287369,1.29342857 62.0269183,1.97357143 62.0541296,2.67171429 C62.0619042,2.85814286 62.6890592,21.4971429 55.2979606,29.1162857 C53.3219042,31.1515714 50.983031,32.1428571 48.1478761,32.1428571 C47.8200451,32.1428571 47.4714817,32.1145714 47.1151437,32.0811429 C46.670693,32.0695714 46.4659606,32.0952857 46.2664113,32.1428571 L45.5861296,32.1428571 C45.3878761,32.0952857 45.1818479,32.0695714 44.9745239,32.0695714 C44.3797634,32.1145714 44.0337915,32.1428571 43.7059606,32.1428571 C40.8682141,32.1428571 38.5280451,31.1515714 36.550693,29.1124286 C30.4061296,22.7712857 29.5936789,7.87628571 29.7984113,2.67171429 C29.8269183,1.97357143 29.5664676,1.29342857 29.0779606,0.788142857 C28.5894535,0.285428571 27.9143549,0 27.2094535,0 L17.0570592,0 C15.6265239,0 14.4655099,1.152 14.4655099,2.57142857 C14.4655099,2.74885714 14.418862,20.4094286 10.7466366,34.0508571 C8.59435493,42.0467143 9.84348169,51.4015714 11.4243268,63.243 C12.779707,73.4027143 14.4655099,86.0451429 14.4655099,101.571429 C14.4655099,124.270714 9.71779155,142.760571 5.90432676,157.617 C4.13948169,164.491714 2.61435493,170.430429 1.80579155,175.759714 C-1.06694085,194.677714 -2.69054648,221.744571 14.5199324,303.950571 C14.7700169,305.145 15.8299606,306 17.0570592,306 L39.8989746,306 L44.9745239,306 L46.8780169,306 L51.3199324,306 L74.7954817,306 C76.0225803,306 77.0838197,305.145 77.3326085,303.950571 C94.5430873,221.744571 92.9194817,194.677714 90.0480451,175.759714 C89.2381859,170.430429 87.7143549,164.491714 85.9482141,157.617 C82.1334535,142.760571 77.387031,124.270714 77.387031,101.571429 C77.387031,86.0451429 79.0741296,73.4027143 80.4295099,63.243 C82.0090592,51.4015714 83.2581859,42.0467143 81.1059042,34.0508571 C77.4284958,20.3914286 77.387031,2.74885714 77.387031,2.57142857 C77.387031,1.152 76.2260169,0 74.7954817,0 L64.6430873,0 Z M78.6024676,34.7142857 C82.4094535,48.8571429 74.7954817,68.1428571 74.7954817,101.571429 C74.7954817,135 84.9465803,159.428571 87.4850028,176.142857 C90.0221296,192.857143 92.5605521,218.571429 74.7954817,303.428571 L51.3199324,303.428571 L46.8780169,303.428571 L44.9745239,303.428571 L39.8989746,303.428571 L17.0570592,303.428571 C-0.708011268,218.571429 1.82911549,192.857143 4.36753803,176.142857 C6.90596056,159.428571 17.0570592,135 17.0570592,101.571429 C17.0570592,68.1428571 9.44308732,48.8571429 13.251369,34.7142857 C17.0570592,20.5714286 17.0570592,2.57142857 17.0570592,2.57142857 L27.2094535,2.57142857 C27.2094535,2.57142857 25.9408901,34.7142857 43.7059606,34.7142857 C44.1426366,34.7142857 44.5598761,34.6795714 44.9745239,34.641 L46.8780169,34.7142857 C47.2926648,34.6795714 47.7112,34.7142857 48.1478761,34.7142857 C65.9129465,34.7142857 64.6430873,2.57142857 64.6430873,2.57142857 L74.7954817,2.57142857 C74.7954817,2.57142857 74.7954817,20.5714286 78.6024676,34.7142857 Z" id="Fill-1" fill="#373737" opacity="0.803725091" mask="url(#mask-2)"></path>
                </g>
                <path d="M83.0500002,155.170929 C83.0500002,155.170929 63.5390029,170.7975 8.61999989,155.925643" id="Stroke-4" stroke="#373737" stroke-width="1.5" opacity="0.803725091" stroke-linecap="round" stroke-linejoin="round"></path>
            </g>
        </g>
    </g>
</svg>