<?xml version="1.0" encoding="UTF-8"?>
<svg width="93px" height="305px" viewBox="0 0 93 305" version="1.1" xmlns="http://www.w3.org/2000/svg" xmlns:xlink="http://www.w3.org/1999/xlink">
    <!-- Generator: Sketch 46.2 (44496) - http://www.bohemiancoding.com/sketch -->
    <title>Page 1</title>
    <desc>Created with Sketch.</desc>
    <defs></defs>
    <g id="Symbols" stroke="none" stroke-width="1" fill="none" fill-rule="evenodd" opacity="0.796818388">
        <g id="High">
            <g id="Page-1">
                <path d="M27.8631875,0 C27.7521042,0 27.6384375,0.00775423729 27.5260625,0.0232627119 L17.7171458,1.31563559 C16.9925208,1.40997881 16.3428125,1.80802966 15.9268958,2.41027542 C15.5122708,3.01252119 15.3727708,3.76209746 15.5406875,4.47419492 C15.5613542,4.55949153 17.6861458,14.324661 11.9743958,28.7746822 C8.21177083,38.2917161 10.0007292,44.082839 12.0738542,50.7902542 C13.6664792,55.9442373 15.4709375,61.7857627 15.4709375,71.0805085 C15.4709375,78.1575424 12.9457292,86.7582839 10.0201042,96.7173093 C9.6506875,97.9734958 9.2748125,99.2555297 8.8950625,100.562119 C2.80485417,121.512775 -3.25047917,146.657182 2.00660417,179.983602 L15.4864375,302.698284 C15.6311042,304.007458 16.7367708,305 18.0542708,305 L43.8023542,305 L48.7068125,305 L74.4548958,305 C75.7723958,305 76.8780625,304.007458 77.0227292,302.698284 L90.5025625,179.983602 C96.2478958,143.561949 88.2963958,116.48803 82.4890625,96.7173093 C79.5634375,86.7582839 77.0382292,78.1575424 77.0382292,71.0805085 C77.0382292,61.7857627 78.8426875,55.9442373 80.4353125,50.7902542 C82.5071458,44.082839 84.2973958,38.2917161 80.5347708,28.7746822 C74.8230208,14.324661 76.9478125,4.55949153 76.9710625,4.46385593 C77.1325208,3.75434322 76.9891458,3.00347458 76.5745208,2.40639831 C76.1586042,1.80932203 75.5127708,1.40997881 74.7920208,1.31563559 L64.9831042,0.0232627119 C64.8707292,0.00775423729 64.7570625,0 64.6459792,0 C64.0233958,0 63.4163125,0.226165254 62.9422708,0.641016949 C62.3829792,1.13211864 62.0626458,1.84033898 62.0626458,2.58474576 C62.0626458,26.926589 54.4301875,29.7943644 48.6900208,29.8331356 C41.9940208,29.803411 36.9901042,27.7614619 33.8474792,23.7667373 C28.6097708,17.1045551 29.6121042,6.405 30.3767708,3.18182203 C30.5731042,2.35470339 30.3496458,1.48364407 29.7800208,0.852966102 C29.2878958,0.306292373 28.5891042,0 27.8631875,0 M64.6459792,2.58474576 L74.4548958,3.87711864 C74.4548958,3.87711864 72.0020208,14.2161017 78.1322708,29.7245763 C84.2638125,45.2330508 74.4548958,49.1101695 74.4548958,71.0805085 C74.4548958,93.0508475 96.5243125,125.360169 87.9411875,179.639831 L74.4548958,302.415254 L48.7068125,302.415254 L43.8023542,302.415254 L18.0542708,302.415254 L4.56797917,179.639831 C-0.7498125,146.009703 5.69947917,120.812309 11.3750625,101.283263 C14.8612708,89.2926271 18.0542708,79.4382839 18.0542708,71.0805085 C18.0542708,49.1101695 8.24535417,45.2330508 14.3768958,29.7245763 C20.5071458,14.2161017 18.0542708,3.87711864 18.0542708,3.87711864 L27.8631875,2.58474576 C26.6632292,7.64309322 24.1845208,32.309322 48.7068125,32.4178814 C64.6459792,32.309322 64.6459792,10.3389831 64.6459792,2.58474576" id="Fill-1" fill="#373737"></path>
                <path d="M82.6264958,104.328869 C82.6264958,104.328869 63.6764542,120.027322 10.3022042,105.050013" id="Stroke-3" stroke="#373737" stroke-width="1.5" stroke-linecap="round" stroke-linejoin="round"></path>
            </g>
        </g>
    </g>
</svg>