<?xml version="1.0" encoding="UTF-8"?>
<svg width="139px" height="293px" viewBox="0 0 139 293" version="1.1" xmlns="http://www.w3.org/2000/svg" xmlns:xlink="http://www.w3.org/1999/xlink">
    <!-- Generator: Sketch 46.2 (44496) - http://www.bohemiancoding.com/sketch -->
    <title>Diamond</title>
    <desc>Created with Sketch.</desc>
    <defs></defs>
    <g id="Symbols" stroke="none" stroke-width="1" fill="none" fill-rule="evenodd">
        <g id="Diamond">
            <polygon id="Fill-38" fill="#E4DACD" opacity="0.696954257" points="68.3303156 34 7 133.394626 68.3303156 233.917372 132.383069 133.958686"></polygon>
            <path d="M137.747099,179.357455 C136.722283,146.483649 133.021442,131.304043 122.419823,104.205237 C111.816113,77.1064303 118.381211,76.8229169 119.949807,55.6651979 C121.518403,34.507479 107.401037,0.552513688 107.401037,0.552513688 L99.8372665,0.552513688 C99.8372665,0.552513688 95.5842794,31.0439604 69.2663727,30.0506055 C42.2520093,31.5729033 38.6954788,0.552513688 38.6954788,0.552513688 L31.1317081,0.552513688 C31.1317081,0.552513688 17.0143424,34.507479 18.5829386,55.6651979 C20.1515348,76.8229169 26.7155869,77.1064303 16.1139682,104.205237 C5.51130376,131.304043 1.81150823,146.483649 0.7846006,179.357455 C-3.61583455,251.014417 18.5829386,292.095302 18.5829386,292.095302 C19.3578251,292.854864 46.6315298,292.730034 69.2663727,292.492009 C91.9001699,292.730034 119.173875,292.854864 119.949807,292.095302 C119.949807,292.095302 142.147534,251.014417 137.747099,179.357455 Z" id="Page-1" stroke="#474747" stroke-width="2" opacity="0.802423007"></path>
        </g>
    </g>
</svg>