<?xml version="1.0" encoding="UTF-8"?>
<svg width="148px" height="303px" viewBox="0 0 148 303" version="1.1" xmlns="http://www.w3.org/2000/svg" xmlns:xlink="http://www.w3.org/1999/xlink">
    <!-- Generator: Sketch 46.2 (44496) - http://www.bohemiancoding.com/sketch -->
    <title>Triangle</title>
    <desc>Created with Sketch.</desc>
    <defs></defs>
    <g id="Symbols" stroke="none" stroke-width="1" fill="none" fill-rule="evenodd">
        <g id="Triangle">
            <polygon id="Fill-36" fill="#E4DACD" opacity="0.696954257" points="70.3669725 22 0 174.748466 147.5 174.748466"></polygon>
            <path d="M111.344328,117.274103 C102.219326,103.210007 95.3304201,90.6892205 106.330286,64.5462352 C117.329044,38.4032499 106.803434,2.54408075 106.803434,2.54408075 L96.4639814,0.0858895706 C92.1070283,9.68327192 83.8385686,14.7673087 73.8381867,14.9360734 C63.8378049,15.1037278 55.5693451,9.68327192 51.211284,0.0858895706 L40.871831,2.54408075 C40.871831,2.54408075 30.3462214,38.4032499 41.3460874,64.5462352 C52.3448453,90.6892205 45.4570476,103.210007 36.3320455,117.274103 C27.2059353,131.338198 6.43838328,153.936015 9.06563041,182.977978 C11.6928775,212.018831 31.6382375,302.08589 31.6382375,302.08589 L72.4530923,302.08589 L75.2221731,302.08589 L116.037028,302.08589 C116.037028,302.08589 135.982388,212.018831 138.609635,182.977978 C141.23799,153.936015 120.46933,131.338198 111.344328,117.274103 Z" id="Page-1" stroke="#373737" stroke-width="2" opacity="0.801290761"></path>
        </g>
    </g>
</svg>