<?xml version="1.0" encoding="UTF-8"?>
<svg width="103px" height="303px" viewBox="0 0 103 303" version="1.1" xmlns="http://www.w3.org/2000/svg" xmlns:xlink="http://www.w3.org/1999/xlink">
    <!-- Generator: Sketch 46.2 (44496) - http://www.bohemiancoding.com/sketch -->
    <title>Rectangle</title>
    <desc>Created with Sketch.</desc>
    <defs></defs>
    <g id="Symbols" stroke="none" stroke-width="1" fill="none" fill-rule="evenodd">
        <g id="Rectangle">
            <g id="vPage-1" transform="translate(9.491884, 35.287326)" fill="#E4DACD" opacity="0.696954257">
                <polygon id="Fill-39" points="-5.68434189e-14 143.372076 84.1008772 143.372076 84.1008772 0 -5.68434189e-14 0"></polygon>
            </g>
            <path d="M98.6600639,149.272979 C92.1464203,112.067786 76.0893507,117.312097 85.6416584,85.8473292 C95.1939662,54.3836585 91.3692683,31.2704939 89.3642163,4.45404227 L78.0477736,3.41060513e-13 C78.0477736,3.41060513e-13 70.2107513,17.2432242 51.4991527,17.1126104 C32.7886643,16.9808989 24.951642,3.41060513e-13 24.951642,3.41060513e-13 L13.6351993,4.45404227 C11.6301473,31.2704939 7.80544945,54.3836585 17.3588674,85.8473292 C26.9100649,117.312097 10.8529953,112.067786 4.34046196,149.272979 C-11.7154974,223.055539 21.9418435,303 21.9418435,303 L51.4991527,302.394127 L81.0575721,303 C81.0575721,303 114.714913,223.055539 98.6600639,149.272979 Z" id="Page-1" stroke="#373737" stroke-width="2" opacity="0.803725091"></path>
        </g>
    </g>
</svg>