<?xml version="1.0" encoding="UTF-8"?>
<svg width="23px" height="30px" viewBox="0 0 23 30" version="1.1" xmlns="http://www.w3.org/2000/svg" xmlns:xlink="http://www.w3.org/1999/xlink">
    <!-- Generator: Sketch 46.2 (44496) - http://www.bohemiancoding.com/sketch -->
    <title>PInterest</title>
    <desc>Created with Sketch.</desc>
    <defs></defs>
    <g id="Home-Page" stroke="none" stroke-width="1" fill="none" fill-rule="evenodd">
        <g id="Desktop-(1600px)-Home-Page" transform="translate(-881.000000, -3757.000000)">
            <g id="7.-Footer" transform="translate(0.000000, 3717.000000)">
                <rect id="Rectangle" fill="#332024" x="0" y="0" width="1600" height="186"></rect>
                <g id="PInterest" transform="translate(881.000000, 40.000000)" fill="#FDF8FD">
                    <path d="M11.8906508,0.909090909 C4.00464058,0.909090909 0,6.42356887 0,11.0467898 C0,11.9066764 0.0916203129,12.7363129 0.304845768,13.4886436 C0.776829198,15.2241021 1.79686868,16.6217679 3.41049674,17.267103 C3.79141513,17.4357192 4.14123814,17.267103 4.23230318,16.8676899 C4.32447877,16.5758326 4.49106115,15.868877 4.58268147,15.5624548 C4.70484188,15.1473565 4.65875409,15.0095505 4.3544636,14.6560727 C3.95855279,14.1793538 3.62372219,13.6421348 3.44103684,12.9659894 C3.31887642,12.520641 3.2428038,12.0293573 3.2428038,11.4613279 C3.2428038,7.36020104 6.39454256,3.67361232 11.4492075,3.67361232 C15.9102838,3.67361232 18.3768137,6.33113806 18.3768137,9.89448571 C18.3768137,10.9549192 18.2696457,11.9526117 18.0719679,12.9049291 C17.3717666,16.1764195 15.5449131,18.5415277 13.0933756,18.5415277 C11.3575871,18.5415277 10.0332572,17.1438619 10.4597081,15.4084035 C10.7034736,14.4415212 11.0532967,13.4270231 11.3575871,12.4438954 C11.6774253,11.4148324 11.9511757,10.4165797 11.9511757,9.64856375 C11.9511757,8.29683322 11.2204343,7.20670989 9.68343416,7.20670989 C7.90155789,7.20670989 6.47061519,9.01891389 6.47061519,11.4148324 C6.47061519,11.8607411 6.51559243,12.2904043 6.57722791,12.6125116 C6.74436558,13.4735186 7.00367883,13.9956126 7.00367883,13.9956126 C7.00367883,13.9956126 5.17682531,21.5374063 4.87197955,22.8583265 C4.23230318,25.4990467 4.78035923,28.7100369 4.82644703,29.0327044 C4.84199472,29.2164457 5.10019742,29.2629412 5.22235783,29.124575 C5.3894955,28.9094633 7.50564709,26.3751787 8.23638849,23.8100837 C8.41962912,23.072878 9.40912849,19.3252289 9.40912849,19.3252289 C9.97273224,20.4159125 11.6624329,21.3682299 13.474294,21.3682299 C17.8126546,21.3682299 21.040466,18.1886101 22.0916009,13.5653892 C22.3348112,12.520641 22.4564163,11.3840222 22.4564163,10.2171533 C22.4564163,5.37882066 18.2696457,0.909090909 11.8906508,0.909090909" id="Fill-44"></path>
                </g>
            </g>
        </g>
    </g>
</svg>