<?xml version="1.0" encoding="UTF-8"?>
<svg width="149px" height="296px" viewBox="0 0 149 296" version="1.1" xmlns="http://www.w3.org/2000/svg" xmlns:xlink="http://www.w3.org/1999/xlink">
    <!-- Generator: Sketch 46.2 (44496) - http://www.bohemiancoding.com/sketch -->
    <title>Inverted Triangle</title>
    <desc>Created with Sketch.</desc>
    <defs></defs>
    <g id="Symbols" stroke="none" stroke-width="1" fill="none" fill-rule="evenodd">
        <g id="Inverted-Triangle">
            <g id="Page-1" transform="translate(0.936178, 11.763862)" fill="#E4DACD" opacity="0.696954257">
                <polygon id="Fill-40" points="1.70530257e-13 0 147.5 0 73.75 151.987805"></polygon>
            </g>
            <path d="M127.289622,42.9212317 C137.723457,26.4565375 130.668143,5.18429981 130.668143,5.18429981 C130.668143,5.18429981 122.651102,1.18154328 116.22522,0 C103.930307,18.147836 89.4964574,21.178606 77.4862062,21.9176279 C77.3262964,21.9276598 77.16185,21.9332332 76.999672,21.9410358 C76.838628,21.9332332 76.6741817,21.9276598 76.5142718,21.9176279 C64.5040206,21.178606 50.0690369,18.147836 37.7752576,0 C31.3482422,1.18154328 23.3323352,5.18429981 23.3323352,5.18429981 C23.3323352,5.18429981 16.2758873,26.4565375 26.7108563,42.9212317 C40.5991977,65.1286721 44.2771245,110.755192 27.3312158,148.691649 C10.3853071,186.626991 47.3335576,295.76815 47.3335576,295.76815 L69.9307489,295.76815 L75.4266579,295.76815 L75.4266579,296 L76.7955317,296 L76.999672,296 L77.2049463,296 L78.5738201,296 L78.5738201,295.76815 L84.0697292,295.76815 L106.66692,295.76815 C106.66692,295.76815 143.616305,186.626991 126.669262,148.691649 C109.724488,110.755192 113.40128,65.1286721 127.289622,42.9212317 Z" id="Page-1" stroke="#474747" stroke-width="2" opacity="0.795629529"></path>
        </g>
    </g>
</svg>