<?xml version="1.0" encoding="UTF-8"?>
<svg width="95px" height="305px" viewBox="0 0 95 305" version="1.1" xmlns="http://www.w3.org/2000/svg" xmlns:xlink="http://www.w3.org/1999/xlink">
    <!-- Generator: Sketch 46.2 (44496) - http://www.bohemiancoding.com/sketch -->
    <title>Medium</title>
    <desc>Created with Sketch.</desc>
    <defs></defs>
    <g id="Symbols" stroke="none" stroke-width="1" fill="none" fill-rule="evenodd">
        <g id="Medium">
            <g id="Page-1">
                <path d="M82.1471029,128.875036 C82.1471029,128.875036 63.8324413,144.572197 12.2471014,129.59618" id="Stroke-1" stroke="#373737" stroke-width="1.5" opacity="0.796365489" stroke-linecap="round" stroke-linejoin="round"></path>
                <path d="M72.904027,0 L64.5453108,0 C63.7942973,0 63.0817973,0.330847458 62.5939595,0.903368644 C62.1061216,1.47847458 61.8917297,2.23709746 62.0085541,2.98408898 C62.0355135,3.15985169 64.6595676,20.7852331 57.9517973,28.6674153 C55.8656486,31.1177542 53.0952432,32.309322 49.4852432,32.309322 C48.8561892,32.309322 48.2065946,32.2795975 47.444027,32.2149788 C47.3721351,32.2085169 47.3002432,32.2059322 47.2283514,32.2059322 C47.1564595,32.2059322 47.0845676,32.2085169 47.0126757,32.2149788 C46.2501081,32.2795975 45.6005135,32.309322 44.9714595,32.309322 C41.3588919,32.309322 38.5884865,31.1151695 36.5010541,28.6622458 C30.9230135,22.0995763 31.6842973,7.9015678 32.4481486,2.98408898 C32.564973,2.23709746 32.3505811,1.47847458 31.8627432,0.903368644 C31.3749054,0.330847458 30.6624054,0 29.9113919,0 L21.5526757,0 C20.8299054,0 20.1417973,0.305 19.6552432,0.842627119 C19.1686892,1.38025424 18.9299054,2.09881356 18.9953784,2.82254237 C19.0030811,2.90137712 19.6822027,11.6933898 14.9039595,27.6877966 C14.0117297,30.6718856 13.2067973,32.929661 12.4981486,34.9212076 C8.98828378,44.7742585 8.48889189,47.5890466 13.5752432,77.9714407 C19.5461216,113.637055 10.3324054,127.617945 10.2386892,127.756229 C10.1308514,127.915191 10.0281486,128.1 9.95754054,128.27964 C-0.616986486,154.959386 -2.78144595,192.519619 3.52321622,239.917394 C8.20004054,275.077691 16.0709189,302.853369 16.1492297,303.129936 C16.4663243,304.236208 17.4728108,305 18.6166622,305 L47.2283514,305 L75.8400405,305 C76.9838919,305 77.9903784,304.236208 78.3061892,303.129936 C78.3857838,302.853369 86.2566622,275.077691 90.9334865,239.917394 C97.2381486,192.519619 95.0736892,154.959386 84.4991622,128.27964 C84.4234189,128.088369 84.3245676,127.907436 84.2064595,127.739428 C84.1242973,127.617945 74.9092973,113.637055 80.8814595,77.9714407 C85.9678108,47.5890466 85.4684189,44.7742585 81.9585541,34.9212076 C81.2486216,32.929661 80.444973,30.6718856 79.5527432,27.6877966 C74.7745,11.6933898 75.4536216,2.90137712 75.4613243,2.81478814 C75.5229459,2.09235169 75.2815946,1.37379237 74.7950405,0.840042373 C74.3097703,0.307584746 73.6229459,0 72.904027,0 M72.904027,2.58474576 C72.904027,2.58474576 72.0747027,11.6313559 77.0942973,28.4322034 C82.1138919,45.2330508 84.6236892,40.0635593 78.3498378,77.5423729 C72.0747027,115.021186 82.1138919,129.237288 82.1138919,129.237288 C107.213149,192.563559 75.8400405,302.415254 75.8400405,302.415254 L47.2283514,302.415254 L18.6166622,302.415254 C18.6166622,302.415254 -12.7564459,192.563559 12.3428108,129.237288 C12.3428108,129.237288 22.382,115.021186 16.1068649,77.5423729 C9.83301351,40.0635593 12.3428108,45.2330508 17.3624054,28.4322034 C22.382,11.6313559 21.5526757,2.58474576 21.5526757,2.58474576 L29.9113919,2.58474576 C29.9113919,2.58474576 24.8917973,34.8940678 44.9714595,34.8940678 C45.7571351,34.8940678 46.5030135,34.8514195 47.2283514,34.790678 C47.9536892,34.8514195 48.6995676,34.8940678 49.4852432,34.8940678 C69.5649054,34.8940678 64.5453108,2.58474576 64.5453108,2.58474576 L72.904027,2.58474576" id="Fill-3" fill="#373737" opacity="0.800000012"></path>
            </g>
        </g>
    </g>
</svg>