<svg id="Layer_1" data-name="Layer 1" xmlns="http://www.w3.org/2000/svg" viewBox="0 0 91.5 70.2"><title>quiz</title><path d="M95,14.9H5a.75.75,0,0,0-.75.75v68.7A.75.75,0,0,0,5,85.1H95a.75.75,0,0,0,.75-.75V15.65A.75.75,0,0,0,95,14.9Zm-.75,1.5V27.62H5.75V16.4ZM5.75,83.6V29.12h88.5V83.6H5.75Z" transform="translate(-4.25 -14.9)"/><polygon points="82.85 10.13 84.77 8.21 86.69 10.13 87.75 9.06 85.83 7.15 87.75 5.23 86.69 4.17 84.77 6.09 82.85 4.17 81.79 5.23 83.71 7.15 81.79 9.06 82.85 10.13"/><rect x="5.12" y="6.36" width="51.37" height="1.5"/><rect x="33.2" y="24.11" width="36.7" height="1.5"/><path d="M29.14,35.91a4,4,0,1,0,4,4A4,4,0,0,0,29.14,35.91Zm0,6.59A2.54,2.54,0,1,1,31.68,40,2.55,2.55,0,0,1,29.14,42.49Z" transform="translate(-4.25 -14.9)"/><rect x="33.2" y="34.16" width="36.7" height="1.5"/><path d="M29.14,46a4,4,0,1,0,4,4A4,4,0,0,0,29.14,46Zm0,6.59A2.54,2.54,0,1,1,31.68,50,2.55,2.55,0,0,1,29.14,52.54Z" transform="translate(-4.25 -14.9)"/><rect x="33.2" y="44.21" width="36.7" height="1.5"/><path d="M29.14,56a4,4,0,1,0,4,4A4,4,0,0,0,29.14,56Zm0,6.59A2.54,2.54,0,1,1,31.68,60,2.55,2.55,0,0,1,29.14,62.59Z" transform="translate(-4.25 -14.9)"/><rect x="33.2" y="54.26" width="36.7" height="1.5"/><path d="M29.14,66.06a4,4,0,1,0,4,4A4,4,0,0,0,29.14,66.06Zm0,6.59a2.54,2.54,0,1,1,2.54-2.54A2.55,2.55,0,0,1,29.14,72.64Z" transform="translate(-4.25 -14.9)"/></svg>