<?xml version="1.0" encoding="UTF-8"?>
<svg width="144px" height="296px" viewBox="0 0 144 296" version="1.1" xmlns="http://www.w3.org/2000/svg" xmlns:xlink="http://www.w3.org/1999/xlink">
    <!-- Generator: Sketch 46.2 (44496) - http://www.bohemiancoding.com/sketch -->
    <title>Round</title>
    <desc>Created with Sketch.</desc>
    <defs></defs>
    <g id="Symbols" stroke="none" stroke-width="1" fill="none" fill-rule="evenodd">
        <g id="Round">
            <path d="M72.0008135,206 C38.8633646,206 12,169.958395 12,125.5 C12,81.0403624 38.8633646,45 72.0008135,45 C105.136635,45 132,81.0403624 132,125.5 C132,169.958395 105.136635,206 72.0008135,206 Z" id="Fill-36" fill="#E4DACD" opacity="0.702502264"></path>
            <path d="M134.083618,146.906348 C115.78479,88.6431923 119.552196,85.6418368 125.684456,60.3019714 C131.816716,34.9621059 119.222817,-4.54747351e-13 119.222817,-4.54747351e-13 L105.951861,-4.54747351e-13 C103.960518,25.5578586 88.7541917,38.9460105 73.3681065,38.9554884 L73.3681065,38.82385 C72.9117122,38.8701867 72.4553179,38.9007269 71.9989236,38.9249483 C71.5425293,38.9007269 71.0872114,38.8701867 70.6318935,38.82385 L70.6318935,38.9554884 C55.2458083,38.9460105 40.0384058,25.5578586 38.0459863,-4.54747351e-13 L24.7761068,-4.54747351e-13 C24.7761068,-4.54747351e-13 12.1832839,34.9621059 18.3144677,60.3019714 C24.4478043,85.6418368 28.21521,88.6431923 9.91638198,146.906348 C-5.69144196,188.075468 1.28686995,212.830859 3.30297024,222.019219 C5.31799413,231.20758 24.7761068,296 24.7761068,296 L67.0270244,296 L70.6318935,296 L71.0355441,296 L72.9644559,296 L73.3681065,296 L76.9718992,296 L119.222817,296 C119.222817,296 138.680929,231.20758 140.69703,222.019219 C142.71313,212.830859 149.691442,188.075468 134.083618,146.906348 Z" id="Page-1" stroke="#373737" stroke-width="2" opacity="0.803781703"></path>
        </g>
    </g>
</svg>