<?xml version="1.0" encoding="UTF-8"?>
<svg width="14px" height="30px" viewBox="0 0 14 30" version="1.1" xmlns="http://www.w3.org/2000/svg" xmlns:xlink="http://www.w3.org/1999/xlink">
    <!-- Generator: Sketch 46.2 (44496) - http://www.bohemiancoding.com/sketch -->
    <title>Facebook</title>
    <desc>Created with Sketch.</desc>
    <defs></defs>
    <g id="Home-Page" stroke="none" stroke-width="1" fill="none" fill-rule="evenodd">
        <g id="Desktop-(1600px)-Home-Page" transform="translate(-700.000000, -3757.000000)">
            <g id="7.-Footer" transform="translate(0.000000, 3717.000000)">
                <rect id="Rectangle" fill="#332024" x="0" y="0" width="1600" height="186"></rect>
                <g id="Facebook" transform="translate(700.000000, 40.000000)" fill="#FDF8FD">
                    <path d="M9.24112545,8.798623 L9.24112545,6.44562763 C9.24112545,5.31725676 10.0046541,5.04705079 10.5573091,5.04705079 C11.0927861,5.04705079 13.9188492,5.04705079 13.9188492,5.04705079 L13.9188492,0.0227272727 L9.29028982,0.0227272727 C4.14165433,0.0227272727 2.98836471,3.74298806 2.98836471,6.15976595 L2.98836471,8.798623 L0,8.798623 L0,14.6654557 L3.02094352,14.6654557 C3.02094352,21.3266708 3.02094352,29.3238398 3.02094352,29.3238398 L9.01425851,29.3238398 C9.01425851,29.3238398 9.01425851,21.2153413 9.01425851,14.6654557 L13.4479374,14.6654557 L13.6428179,12.3600073 L14,8.798623 L9.24112545,8.798623" id="Fill-39"></path>
                </g>
            </g>
        </g>
    </g>
</svg>