<?xml version="1.0" encoding="UTF-8"?>
<svg width="140px" height="296px" viewBox="0 0 140 296" version="1.1" xmlns="http://www.w3.org/2000/svg" xmlns:xlink="http://www.w3.org/1999/xlink">
    <!-- Generator: Sketch 46.2 (44496) - http://www.bohemiancoding.com/sketch -->
    <title>Pear</title>
    <desc>Created with Sketch.</desc>
    <defs></defs>
    <g id="Symbols" stroke="none" stroke-width="1" fill="none" fill-rule="evenodd">
        <g id="Pear">
            <g id="Page-1" transform="translate(1.537733, 23.204851)" fill="#E4DACD" opacity="0.696954257">
                <path d="M133.971877,103.821973 C131.096679,75.6667802 122.114136,82.0015784 113.849166,65.8119822 C105.943596,40.4739906 102.866005,28.540831 95.9601314,16.7338146 C89.0542574,4.92679832 78.7175256,0 67.3148605,0 C48.6003099,0 33.0344945,17.4209955 29.7091261,40.4355469 L29.0442977,41.1767892 C29.0442977,41.1767892 29.4036975,58.7743854 19.227653,68.3780981 C-16.9515216,97.4883761 6.01694913,147.937301 22.6045395,157.085697 C22.6118993,157.089301 22.619259,157.091703 22.6253921,157.096509 C31.9796008,165.012304 46.2353854,170.223825 67.3148605,170.691156 C133.253078,166.468358 136.128276,117.900771 133.971877,103.821973" id="Fill-39"></path>
            </g>
            <path d="M116.168516,117.738651 C99.7348951,78.3496773 114.061217,84.7899088 117.608319,58.6924079 C121.155422,32.594907 110.13789,-4.54747351e-13 110.13789,-4.54747351e-13 L104.006864,-4.54747351e-13 C104.006864,-4.54747351e-13 95.4916118,20.3325768 69.5453577,21.3131748 C45.8056992,21.2150071 35.0838512,-4.54747351e-13 35.0838512,-4.54747351e-13 L28.9517221,-4.54747351e-13 C28.9517221,-4.54747351e-13 17.9352937,32.594907 21.4823961,58.6924079 C25.0294985,84.7899088 39.3558203,78.3496773 22.9210964,117.738651 C6.48747581,157.128703 -11.2601724,160.815925 9.19827848,234.024204 C22.4290256,281.369075 25.3582812,293.369266 25.7786377,295.941043 L62.0738251,295.941043 L77.0168903,295.941043 L113.310974,295.941043 C113.731331,293.369266 116.660587,281.369075 129.891334,234.024204 C150.349785,160.815925 132.60324,157.128703 116.168516,117.738651 Z" id="Page-1" stroke="#373737" stroke-width="2" opacity="0.799705616"></path>
        </g>
    </g>
</svg>