<?xml version="1.0" encoding="UTF-8"?>
<svg width="31px" height="32px" viewBox="0 0 31 32" version="1.1" xmlns="http://www.w3.org/2000/svg" xmlns:xlink="http://www.w3.org/1999/xlink">
    <!-- Generator: Sketch 46.2 (44496) - http://www.bohemiancoding.com/sketch -->
    <title>Instagram</title>
    <desc>Created with Sketch.</desc>
    <defs></defs>
    <g id="Home-Page" stroke="none" stroke-width="1" fill="none" fill-rule="evenodd">
        <g id="Desktop-(1600px)-Home-Page" transform="translate(-816.000000, -3756.000000)">
            <g id="7.-Footer" transform="translate(0.000000, 3717.000000)">
                <rect id="Rectangle" fill="#332024" x="0" y="0" width="1600" height="186"></rect>
                <g id="Instagram" transform="translate(816.277778, 40.000000)" stroke-width="0.5" stroke="#FDF8FD" fill="#FDF8FD">
                    <path d="M24,15 C24,10.0374094 19.9778923,6 14.999719,6 C10.0372834,6 6,10.0374094 6,15 C6,19.9777667 10.0372834,24 14.999719,24 C19.9778923,24 24,19.9777667 24,15 Z M22.499709,4.5 C21.6704171,4.5 21,5.17041707 21,5.99970902 C21,6.82958293 21.6704171,7.5 22.499709,7.5 C23.3295829,7.5 24,6.82958293 24,5.99970902 C24,5.17041707 23.3295829,4.5 22.499709,4.5 Z M6.92688469,1.5 L23.0731153,1.5 C26.0655788,1.5 28.5,3.93442118 28.5,6.92750131 L28.5,23.0731153 C28.5,26.0655788 26.0655788,28.5 23.0731153,28.5 L6.92688469,28.5 C3.93380455,28.5 1.5,26.0655788 1.5,23.0731153 L1.5,6.92750131 C1.5,3.93442118 3.93380455,1.5 6.92688469,1.5 Z M22.9100795,0 L7.08992045,0 C3.1972611,0 0,3.18034438 0,7.09052462 L0,22.9100795 C0,26.8027389 3.1972611,30 7.08992045,30 L22.9100795,30 C26.8196556,30 30,26.8027389 30,22.9100795 L30,7.09052462 C30,3.18034438 26.8196556,0 22.9100795,0 Z M14.9917199,7.5 C19.1436007,7.5 22.5,10.8692399 22.5,15 C22.5,19.1461205 19.1436007,22.5 14.9917199,22.5 C10.8569908,22.5 7.5,19.1461205 7.5,15 C7.5,10.8692399 10.8569908,7.5 14.9917199,7.5 Z"></path>
                </g>
            </g>
        </g>
    </g>
</svg>