<?xml version="1.0" encoding="UTF-8"?>
<svg width="17px" height="22px" viewBox="0 0 17 22" version="1.1" xmlns="http://www.w3.org/2000/svg" xmlns:xlink="http://www.w3.org/1999/xlink">
    <!-- Generator: Sketch 46.2 (44496) - http://www.bohemiancoding.com/sketch -->
    <title>Shopping Icon</title>
    <desc>Created with Sketch.</desc>
    <defs></defs>
    <g id="Home-Page" stroke="none" stroke-width="1" fill="none" fill-rule="evenodd" opacity="0.847599638">
        <g id="Desktop-(1600px)-Home-Page" transform="translate(-1528.000000, -37.000000)" fill-rule="nonzero" fill="#332024">
            <g id="1.-Header" transform="translate(30.000000, 26.000000)">
                <g id="Shopping-Icon" transform="translate(1498.000000, 11.000000)">
                    <path d="M16.4333333,5.54691076 L12.8916667,5.54691076 L12.8916667,4.42105263 C12.8916667,1.9771167 10.9083333,0 8.5,0 C6.09166667,0 4.10833333,1.9771167 4.10833333,4.42105263 L4.10833333,5.54691076 L0.566666667,5.54691076 C0.253705308,5.54691076 0,5.79279556 0,6.09610984 L0,19.826087 C0,20.7360298 0.761115925,21.4736842 1.7,21.4736842 L15.3,21.4736842 C16.2388841,21.4736842 17,20.7360298 17,19.826087 L17,6.09610984 C17,5.79279556 16.7462947,5.54691076 16.4333333,5.54691076 Z M5.525,4.42105263 C5.525,2.74599542 6.85666667,1.37299771 8.5,1.37299771 C10.1433333,1.37299771 11.475,2.74599542 11.475,4.42105263 L11.475,5.54691076 L5.525,5.54691076 L5.525,4.42105263 Z"></path>
                </g>
            </g>
        </g>
    </g>
</svg>