<?xml version="1.0" encoding="UTF-8"?>
<svg width="34px" height="28px" viewBox="0 0 34 28" version="1.1" xmlns="http://www.w3.org/2000/svg" xmlns:xlink="http://www.w3.org/1999/xlink">
    <!-- Generator: Sketch 46.2 (44496) - http://www.bohemiancoding.com/sketch -->
    <title>Twitter</title>
    <desc>Created with Sketch.</desc>
    <defs></defs>
    <g id="Home-Page" stroke="none" stroke-width="1" fill="none" fill-rule="evenodd">
        <g id="Desktop-(1600px)-Home-Page" transform="translate(-748.000000, -3758.000000)">
            <g id="7.-Footer" transform="translate(0.000000, 3717.000000)">
                <rect id="Rectangle" fill="#332024" x="0" y="0" width="1600" height="186"></rect>
                <g id="Twitter" transform="translate(748.222222, 40.000000)" fill="#FDF8FD">
                    <path d="M33,4.71976196 C31.8003323,5.25251288 30.4949267,5.6192811 29.1170711,5.80266521 C30.5301727,4.94062604 31.603216,3.61878802 32.1057972,2.00380315 C30.7990862,2.79289025 29.3318104,3.36178256 27.7927372,3.6736694 C26.5741411,2.33442997 24.8040112,1.5085322 22.8354596,1.5085322 C19.1130956,1.5085322 16.0701952,4.57318853 16.0701952,8.33457062 C16.0701952,8.88539224 16.1602682,9.39940317 16.2673115,9.89534341 C10.6305702,9.61959796 5.63674123,6.90363915 2.30795704,2.75607957 C1.7355367,3.78410144 1.37785557,4.94062604 1.37785557,6.18817341 C1.37785557,8.57350539 2.59449356,10.6656905 4.38355189,11.8770965 C3.27460986,11.8583565 2.23615973,11.5464697 1.32433395,11.0324587 C1.32433395,11.0692694 1.32433395,11.0880094 1.32433395,11.1241508 C1.32433395,12.0049299 1.48555153,12.812757 1.78905833,13.5831041 C2.61276924,15.7308399 4.49190055,17.3451555 6.76526434,17.8042851 C6.17326292,17.9695985 5.60084258,18.0606213 4.97490061,18.0606213 C4.54542218,18.0606213 4.11594375,18.0057399 3.70343559,17.9140478 C4.58132083,20.6300066 7.06811844,22.6117597 10.0222512,22.6853811 C7.69471311,24.5205608 4.79606005,25.603464 1.62849344,25.603464 C1.07304338,25.603464 0.554797365,25.565984 0,25.5111027 C3.00634902,27.4386437 6.5674954,28.575759 10.3799324,28.575759 C20.9563283,28.575759 27.4885777,21.0703962 29.187563,13.2712173 C29.4930279,11.8770965 29.6353172,10.5003771 29.6353172,9.1423977 C29.6353172,8.84858156 29.6353172,8.537364 29.6353172,8.26161855 C30.9420281,7.28914735 32.1057972,6.07774137 33,4.71976196" id="Fill-49"></path>
                </g>
            </g>
        </g>
    </g>
</svg>